<?xml version="1.0" standalone="no"?>
<!DOCTYPE svg PUBLIC "-//W3C//DTD SVG 20010904//EN"
 "http://www.w3.org/TR/2001/REC-SVG-20010904/DTD/svg10.dtd">
<svg version="1.0" xmlns="http://www.w3.org/2000/svg"
 width="1084.000000pt" height="1084.000000pt" viewBox="0 0 1084.000000 1084.000000"
 preserveAspectRatio="xMidYMid meet">
<metadata>
Created by potrace 1.11, written by Peter Selinger 2001-2013
</metadata>
<g transform="translate(0.000000,1084.000000) scale(0.100000,-0.100000)"
fill="#000000" stroke="none">
<path d="M5267 8603 c-2 -1 -52 -4 -112 -8 -117 -6 -198 -13 -255 -20 -19 -3
-55 -7 -80 -10 -25 -3 -56 -7 -70 -10 -13 -3 -42 -7 -65 -10 -38 -5 -60 -9
-115 -20 -14 -3 -43 -8 -65 -11 -58 -9 -409 -98 -485 -124 -36 -12 -72 -23
-81 -25 -26 -5 -334 -122 -394 -150 -31 -14 -58 -25 -60 -25 -13 0 -295 -141
-405 -203 -415 -232 -773 -505 -1090 -832 -132 -135 -220 -233 -274 -303 -11
-15 -23 -29 -27 -32 -20 -16 -222 -299 -298 -416 -178 -277 -339 -594 -443
-869 -16 -44 -36 -93 -43 -110 -26 -60 -129 -398 -151 -495 -2 -11 -6 -28 -8
-37 -36 -143 -78 -375 -101 -553 -3 -25 -7 -61 -9 -80 -28 -238 -29 -721 -1
-995 26 -262 103 -626 186 -881 46 -144 61 -168 104 -181 17 -4 2028 -8 4475
-8 l4445 1 47 21 c61 28 98 85 139 213 51 158 117 442 134 579 4 30 8 63 11
74 2 10 6 45 9 76 3 31 8 70 10 86 25 188 25 723 0 965 -6 60 -26 230 -30 255
-1 11 -5 45 -9 75 -4 30 -9 62 -11 70 -2 8 -7 31 -10 50 -42 249 -140 609
-234 860 -79 209 -215 502 -306 660 -21 36 -43 74 -49 85 -33 59 -138 217
-214 325 -365 513 -845 953 -1437 1317 -135 83 -426 232 -580 297 -49 21 -103
44 -120 51 -115 50 -326 121 -511 173 -217 62 -379 95 -664 137 -14 2 -52 7
-85 10 -33 3 -73 8 -90 10 -89 12 -570 27 -578 18z m-177 -685 c0 -18 2 -247
3 -508 l2 -475 26 -55 c31 -66 94 -131 158 -162 38 -19 62 -23 136 -23 78 1
97 5 142 28 70 36 128 99 155 167 21 53 22 69 24 550 2 272 3 499 3 503 1 8
168 2 215 -8 11 -2 44 -7 71 -9 57 -7 137 -20 210 -36 28 -5 64 -13 80 -16 72
-15 290 -77 405 -115 377 -125 744 -307 1056 -524 107 -75 303 -227 327 -253
16 -18 2 -34 -327 -362 -401 -399 -411 -413 -411 -555 0 -98 24 -154 97 -226
66 -65 139 -92 234 -87 125 8 146 24 497 373 172 170 325 327 341 348 l29 38
54 -53 c69 -67 166 -196 275 -363 170 -262 293 -497 396 -755 43 -109 128
-357 137 -400 2 -8 15 -61 29 -117 25 -98 51 -213 60 -270 41 -243 47 -290 49
-367 l1 -60 -494 -2 c-337 -1 -508 -5 -537 -13 -22 -6 -63 -26 -89 -44 -99
-67 -145 -160 -140 -282 6 -125 70 -220 182 -273 l59 -27 508 -3 c470 -3 507
-4 508 -20 3 -52 -6 -175 -16 -212 -2 -8 -6 -37 -10 -65 -3 -27 -15 -93 -25
-145 -21 -100 -28 -138 -29 -157 -1 -6 -8 -19 -17 -27 -14 -14 -139 -16 -1230
-16 -815 0 -1222 3 -1235 10 -40 22 -79 138 -72 220 5 67 29 129 76 201 24 35
182 262 352 504 313 446 328 467 427 610 30 44 169 244 308 445 233 335 322
464 455 655 128 183 195 290 186 293 -6 2 -55 -27 -108 -64 -54 -37 -127 -88
-163 -113 -36 -24 -290 -200 -565 -391 -719 -498 -730 -505 -1088 -756 -126
-87 -238 -166 -250 -174 -12 -8 -83 -57 -157 -109 -240 -169 -276 -191 -308
-191 -16 0 -70 15 -118 34 -101 39 -265 81 -369 95 -121 16 -386 7 -505 -18
-527 -110 -947 -456 -1153 -952 -24 -57 -49 -126 -56 -154 -20 -80 -41 -122
-67 -134 -18 -8 -361 -11 -1217 -11 -656 0 -1201 3 -1213 6 -30 8 -51 51 -63
125 -6 35 -13 75 -16 89 -34 168 -60 406 -45 415 4 3 224 5 488 5 404 1 489 3
533 16 137 41 225 147 234 281 12 158 -74 280 -233 330 -39 13 -133 16 -532
18 -267 2 -488 3 -491 4 -4 1 -5 16 -4 34 2 17 6 66 9 107 3 41 8 86 10 100 2
14 7 48 11 75 13 98 17 121 36 210 140 642 415 1224 824 1743 80 102 106 124
114 100 2 -7 156 -164 341 -349 356 -355 384 -377 493 -398 57 -10 159 11 209
44 159 105 200 289 100 450 -14 22 -177 192 -362 377 l-337 337 66 64 c36 35
91 82 121 105 30 23 60 45 65 49 6 5 69 46 140 92 72 46 141 91 155 100 14 10
32 21 40 24 8 4 47 26 85 48 212 122 543 265 795 343 118 36 337 92 400 102
19 3 51 9 70 14 38 9 141 25 230 36 30 3 57 8 59 10 2 2 37 4 78 4 l73 0 0
-32z m475 -4451 c231 -54 397 -145 540 -296 33 -34 115 -145 115 -155 0 -2 12
-30 27 -62 15 -33 28 -63 29 -69 1 -5 3 -17 5 -24 4 -13 -111 -15 -856 -16
-473 -1 -865 1 -872 3 -8 2 -5 22 10 65 49 146 167 291 319 393 65 44 197 114
221 118 7 1 17 4 22 7 9 5 109 30 170 42 25 5 243 0 270 -6z"/>
</g>
</svg>
